<svg viewBox="0 0 61 60" fill="none" xmlns="http://www.w3.org/2000/svg">
<path d="M57.9554 40.0985H2.99394C3.00658 39.6988 3.00349 39.9754 2.99422 39.9223C2.98495 39.8685 2.43893 39.2028 2.34539 39.0539C-0.837214 33.9836 0.170451 28.299 4.79817 24.7586C5.16134 20.115 7.65467 15.5715 11.8442 13.3827C13.4629 7.77973 18.5853 3.8691 24.5426 4.54822C27.4042 0.253841 32.989 -0.921571 37.9863 0.692987C40.4189 1.47892 43.2258 3.77995 45.3118 6.86666C51.8152 8.06501 56.2777 13.9137 56.0974 20.476C61.6368 25.0961 61.5888 34.3213 57.9554 40.0985Z" fill="#FF8400"/>
<path d="M20.4151 28.5093C20.2811 28.3716 20.2607 28.5564 20.2173 28.624C19.8384 29.2071 19.5731 29.864 19.1215 30.4578C15.4296 35.3173 9.8399 33.5609 8.05829 28.1351C6.58278 23.6436 8.28632 16.5485 13.0535 14.6898C16.7108 13.264 19.5687 15.8454 20.8153 19.088C22.5898 15.1529 27.1893 12.0854 31.1048 15.3574C34.416 18.1254 34.6174 23.6213 33.1952 27.4018C30.9424 33.3876 24.3137 36.32 20.7966 29.5076C20.7008 29.3218 20.4524 28.5484 20.4151 28.5102V28.5093ZM12.0545 17.8658C7.9394 18.4649 7.08231 28.7804 11.2773 30.0649C14.254 30.9769 15.8422 26.7645 15.9842 24.4693C16.1261 22.1742 15.2415 17.4018 12.0545 17.8658ZM25.9711 18.2338C22.8311 16.152 20.6627 21.3342 20.5012 23.7502C20.3388 26.1769 21.4284 30.9724 24.7671 30.0693C28.6506 29.0187 29.2859 20.4311 25.9711 18.2338Z" fill="#F5F6F8"/>
<path d="M25.9714 18.2338C29.2862 20.4312 28.6518 29.0178 24.7674 30.0694C21.4287 30.9734 20.3391 26.1769 20.5015 23.7503C20.663 21.3334 22.8314 16.1521 25.9714 18.2338Z" fill="#1C1D1C"/>
<path d="M12.0542 17.8658C15.2412 17.4018 16.1276 22.1511 15.9838 24.4693C15.8401 26.7875 14.2546 30.9769 11.2769 30.0649C7.08197 28.7804 7.93906 18.4649 12.0542 17.8658Z" fill="#1C1D1C"/>
<path d="M4.42462 39.9794C22.5386 39.9677 40.8271 39.86 58.9945 40.0152C60.3539 40.2637 59.85 42.3861 59.574 43.311C58.1025 48.242 53.493 52.2913 49.1728 54.7178C48.0298 55.3601 45.4758 56.337 44.6675 57.0851C43.8102 57.8781 43.6909 60.0597 41.8615 59.9987H18.7089C17.0104 59.8435 16.9045 58.4441 16.1603 57.3641C15.6226 56.5846 12.5068 55.3601 11.4867 54.8075C7.43531 52.6151 3.41156 49.1507 1.53499 44.8314C1.03648 43.6859 -0.248098 40.4289 1.57327 39.9436C2.07029 39.8951 3.70533 39.9803 4.42462 39.9794Z" fill="#FF6E00"/>
</svg>
