<svg width="24" height="24" viewBox="0 0 24 24" fill="none" xmlns="http://www.w3.org/2000/svg">
<path d="M8.64967 12.5C8.64967 10.6498 10.1495 9.15 11.9997 9.15C13.8498 9.15 15.3496 10.6498 15.3496 12.5C15.3496 14.3502 13.8498 15.85 11.9997 15.85C10.1495 15.85 8.64967 14.3502 8.64967 12.5Z" fill="currentColor"/>
<path fill-rule="evenodd" clip-rule="evenodd" d="M10.6592 2.35015L13.3413 2.35015C13.8037 2.34974 14.1937 2.3494 14.5668 2.44976C14.8947 2.53797 15.2046 2.68309 15.4823 2.87851C15.7982 3.10082 16.0477 3.40065 16.3434 3.75611L17.672 5.3502L18.3354 5.3502C18.8653 5.35018 19.3165 5.35017 19.6869 5.38044C20.0761 5.41223 20.4547 5.48187 20.8166 5.66628C21.3623 5.94431 21.8059 6.38796 22.0839 6.93363C22.2684 7.29556 22.338 7.67415 22.3698 8.06332C22.4 8.43374 22.4 8.88491 22.4 9.41476V17.0856C22.4 17.6155 22.4 18.0667 22.3698 18.4371C22.338 18.8262 22.2684 19.2048 22.0839 19.5668C21.8059 20.1124 21.3623 20.5561 20.8166 20.8341C20.4547 21.0185 20.0761 21.0882 19.6869 21.12C19.3165 21.1502 18.8653 21.1502 18.3355 21.1502H5.66468C5.13483 21.1502 4.68363 21.1502 4.31321 21.12C3.92405 21.0882 3.54545 21.0185 3.18352 20.8341C2.63785 20.5561 2.19421 20.1124 1.91618 19.5668C1.73177 19.2048 1.66213 18.8262 1.63034 18.4371C1.60007 18.0667 1.60008 17.6155 1.6001 17.0857V9.4148C1.60008 8.88495 1.60007 8.43373 1.63034 8.06332C1.66213 7.67415 1.73177 7.29556 1.91618 6.93363C2.19421 6.38796 2.63785 5.94431 3.18352 5.66628C3.54545 5.48187 3.92405 5.41223 4.31321 5.38044C4.68364 5.35017 5.13482 5.35018 5.66469 5.3502L6.32898 5.3502L7.65658 3.75668C7.95233 3.40108 8.20178 3.10114 8.51777 2.87873C8.79552 2.68324 9.10545 2.53805 9.43343 2.4498C9.80657 2.3494 10.1967 2.34974 10.6592 2.35015ZM11.9997 7.35C9.1554 7.35 6.84968 9.65573 6.84968 12.5C6.84968 15.3443 9.1554 17.65 11.9997 17.65C14.8439 17.65 17.1496 15.3443 17.1496 12.5C17.1496 9.65573 14.8439 7.35 11.9997 7.35Z" fill="currentColor"/>
</svg>
