<svg viewBox="0 0 25 24" fill="none" xmlns="http://www.w3.org/2000/svg">
<path d="M20.365 3.419C18.9886 4.45132 17.7337 4.69324 16.5212 4.56781C15.2687 4.43824 14.0415 3.91757 12.7114 3.34751L12.6695 3.32955C11.3864 2.77959 10.0029 2.18661 8.5524 2.03656C7.22885 1.89964 5.8657 2.13056 4.45294 3.01475C4.12678 3.07131 3.8548 3.28588 3.71873 3.57675C3.64898 3.68637 3.61728 3.81539 3.62659 3.94316C3.62553 3.96197 3.625 3.98092 3.625 4V15.1494C3.625 15.1494 3.625 15.1494 3.625 15.1494V21.4643C3.625 22.0166 4.07272 22.4643 4.625 22.4643C5.17728 22.4643 5.625 22.0166 5.625 21.4643V14.9818C6.60463 14.4965 7.52848 14.387 8.42892 14.4802C9.68138 14.6098 10.9086 15.1304 12.2387 15.7005L12.2806 15.7184C13.5637 16.2684 14.9472 16.8614 16.3977 17.0114C17.9039 17.1673 19.4615 16.8467 21.085 15.629C21.2361 15.5157 21.325 15.3379 21.325 15.149V3.899C21.325 3.67173 21.1966 3.46398 20.9934 3.36234C20.7901 3.26071 20.5468 3.28264 20.365 3.419Z" fill="currentColor"/>
</svg>
