<svg viewBox="0 0 25 24" fill="none" xmlns="http://www.w3.org/2000/svg">
<path d="M12.5136 2.27635C12.7504 2.21306 12.9997 2.21306 13.2365 2.27635C13.5173 2.35138 13.7501 2.53318 13.8727 2.62893L13.9077 2.65613L20.7409 7.88141C21.1277 8.17664 21.4539 8.4256 21.6966 8.7499C21.9099 9.03485 22.069 9.35664 22.1657 9.69917C22.2759 10.089 22.2755 10.4993 22.2751 10.9859L22.275 17.3349C22.275 17.8647 22.275 18.3159 22.2448 18.6863C22.213 19.0755 22.1434 19.4541 21.9589 19.816C21.6809 20.3617 21.2373 20.8053 20.6916 21.0834C20.3297 21.2678 19.9511 21.3374 19.5619 21.3692C19.1915 21.3995 18.7403 21.3995 18.2105 21.3994H13.7753V13.9995C13.7753 13.5024 13.3724 13.0995 12.8753 13.0995C12.3783 13.0995 11.9753 13.5024 11.9753 13.9995V21.3994H7.53967C7.00982 21.3995 6.55861 21.3995 6.18819 21.3692C5.79903 21.3374 5.42044 21.2678 5.05851 21.0834C4.51284 20.8053 4.0692 20.3617 3.79117 19.816C3.60676 19.4541 3.53712 19.0755 3.50533 18.6863C3.47506 18.3159 3.47507 17.8647 3.47509 17.3348L3.47503 10.9859C3.47458 10.4993 3.47421 10.089 3.58436 9.69917C3.68115 9.35664 3.84017 9.03485 4.05346 8.7499C4.29622 8.42559 4.6224 8.17664 5.00921 7.88141L11.8424 2.65613L11.8774 2.62893C12.0001 2.53317 12.2328 2.35138 12.5136 2.27635Z" fill="currentColor"/>
</svg>
