<svg xmlns="http://www.w3.org/2000/svg" viewBox="0 0 16 16" fill="none">
  <path d="M7.33299 10.667C7.33299 11.0352 7.63146 11.3337 7.99965 11.3337C8.36784 11.3337 8.66632 11.0352 8.66632 10.667C8.66632 10.2988 8.36784 10.0003 7.99965 10.0003C7.63146 10.0003 7.33299 10.2988 7.33299 10.667Z" fill="currentColor"/>
  <path d="M7.39957 5.33366C7.39957 5.00229 7.6682 4.73366 7.99957 4.73366C8.33094 4.73366 8.59957 5.00229 8.59957 5.33366V8.33366C8.59957 8.66503 8.33094 8.93366 7.99957 8.93366C7.6682 8.93366 7.39957 8.66503 7.39957 8.33366V5.33366Z" fill="currentColor"/>
  <path fill-rule="evenodd" clip-rule="evenodd" d="M14.5996 8.00039C14.5996 4.35531 11.6447 1.40039 7.99963 1.40039C4.35457 1.40039 1.39966 4.35531 1.39966 8.00039C1.39966 11.6455 4.35457 14.6004 7.99963 14.6004C11.6447 14.6004 14.5996 11.6455 14.5996 8.00039ZM7.99963 2.60039C10.982 2.60039 13.3996 5.01805 13.3996 8.00039C13.3996 10.9827 10.982 13.4004 7.99963 13.4004C5.01731 13.4004 2.59966 10.9827 2.59966 8.00039C2.59966 5.01805 5.01731 2.60039 7.99963 2.60039Z" fill="currentColor"/>
</svg>