<svg viewBox="0 0 24 24" fill="none" xmlns="http://www.w3.org/2000/svg">
<path fill-rule="evenodd" clip-rule="evenodd" d="M13.7342 21.3234C14.4598 20.7425 15.4297 19.9048 16.4027 18.8794C18.3087 16.8708 20.3998 13.9623 20.3998 10.7495C20.3998 6.11029 16.639 2.34949 11.9998 2.34949C7.36065 2.34949 3.59985 6.11029 3.59985 10.7495C3.59985 13.9623 5.69094 16.8708 7.59699 18.8794C8.56998 19.9048 9.53986 20.7425 10.2654 21.3234C10.6644 21.643 11.0706 21.957 11.4938 22.2443C11.794 22.4473 12.2035 22.4482 12.504 22.2455C12.9279 21.9579 13.3347 21.6434 13.7342 21.3234ZM14.7499 10.7494C14.7499 12.2682 13.5187 13.4994 12 13.4994C10.4812 13.4994 9.24996 12.2682 9.24996 10.7494C9.24996 9.23061 10.4812 7.99939 12 7.99939C13.5187 7.99939 14.7499 9.23061 14.7499 10.7494Z" fill="currentColor"/>
</svg>
