<svg width="20" height="20" viewBox="0 0 20 20" fill="none" xmlns="http://www.w3.org/2000/svg">
<path fill-rule="evenodd" clip-rule="evenodd" d="M11.4453 17.7695C12.0499 17.2854 12.8582 16.5873 13.669 15.7328C15.2574 14.059 16.9999 11.6352 16.9999 8.95789C16.9999 5.09189 13.866 1.95789 9.99997 1.95789C6.13399 1.95789 3 5.09189 3 8.95789C3 11.6352 4.74257 14.059 6.33095 15.7328C7.14177 16.5873 7.95001 17.2854 8.55463 17.7695C8.88715 18.0358 9.22561 18.2975 9.57829 18.5369C9.82842 18.7061 10.1697 18.7068 10.4202 18.5379C10.7734 18.2983 11.1123 18.0361 11.4453 17.7695ZM12.2917 8.9578C12.2917 10.2235 11.2657 11.2495 10.0001 11.2495C8.73444 11.2495 7.70843 10.2235 7.70843 8.9578C7.70843 7.69215 8.73444 6.66614 10.0001 6.66614C11.2657 6.66614 12.2917 7.69215 12.2917 8.9578Z" fill="currentColor"/>
</svg>
