<svg viewBox="0 0 24 24" fill="none" xmlns="http://www.w3.org/2000/svg">
<path d="M5.1417 2.90912H18.8583C19.2493 2.90912 19.6045 3.13701 19.7674 3.49246L22 8.36366C22 10.372 20.3719 12 18.3636 12C16.9945 12 15.8021 11.2434 15.1818 10.1255C14.5615 11.2434 13.3691 12 12 12C10.6309 12 9.43851 11.2434 8.81818 10.1255C8.19785 11.2434 7.00547 12 5.63636 12C3.62806 12 2 10.372 2 8.36366L4.23313 3.49137C4.39605 3.13592 4.75069 2.90912 5.1417 2.90912Z" fill="currentColor"/>
<path d="M3.81818 13.0382C4.37808 13.2779 4.99251 13.4103 5.63707 13.4103C6.86326 13.4103 7.97964 12.931 8.81889 12.1468C9.65814 12.931 10.7745 13.4103 12.0007 13.4103C13.2269 13.4103 14.3433 12.931 15.1825 12.1468C16.0218 12.931 17.1382 13.4103 18.3643 13.4103C19.0084 13.4103 19.6223 13.2781 20.1818 13.0388V20.0909C20.1818 20.6432 19.7341 21.0909 19.1818 21.0909H14.0455V18.5909C14.0455 17.4613 13.1297 16.5455 12 16.5455C10.8703 16.5455 9.95455 17.4613 9.95455 18.5909V21.0909H4.81818C4.2659 21.0909 3.81818 20.6432 3.81818 20.0909V13.0382Z" fill="currentColor"/>
</svg>
