<svg viewBox="0 0 24 24" fill="none" xmlns="http://www.w3.org/2000/svg">
<path fill-rule="evenodd" clip-rule="evenodd" d="M4.80917 2.20001C4.06682 2.20001 3.40062 2.65574 3.13156 3.34761L0.877571 9.14359C0.737187 9.50457 0.699027 9.95082 0.882704 10.3811C1.08261 10.8494 1.62879 11.9195 2.7002 12.4658V20C2.7002 20.9941 3.50608 21.8 4.5002 21.8H19.5002C20.4943 21.8 21.3002 20.9941 21.3002 20V12.4657C22.3715 11.9193 22.9176 10.8494 23.1175 10.3811C23.3012 9.95082 23.263 9.50457 23.1226 9.14358L20.8686 3.34761C20.5996 2.65574 19.9334 2.20001 19.191 2.20001H4.80917ZM19.7002 12.7956C18.5291 12.736 17.7444 12.0828 17.2501 11.4409C16.7316 12.1142 15.8935 12.8 14.6251 12.8C13.3567 12.8 12.5186 12.1142 12.0001 11.4409C11.4816 12.1142 10.6435 12.8 9.3751 12.8C8.10667 12.8 7.26864 12.1142 6.7501 11.4409C6.25581 12.0828 5.4712 12.7359 4.3002 12.7956V20C4.3002 20.1105 4.38974 20.2 4.5002 20.2H8.7002V17.5C8.7002 15.6775 10.1777 14.2 12.0002 14.2C13.8227 14.2 15.3002 15.6775 15.3002 17.5V20.2H19.5002C19.6107 20.2 19.7002 20.1105 19.7002 20V12.7956ZM4.62277 3.92752C4.65266 3.85065 4.72669 3.80001 4.80917 3.80001H19.191C19.2735 3.80001 19.3475 3.85065 19.3774 3.92752L21.6314 9.7235C21.6389 9.74268 21.6411 9.75618 21.6417 9.76294C21.3849 10.3596 20.8362 11.2 19.8751 11.2C18.9103 11.2 18.3611 10.3533 18.1053 9.75541C17.919 9.31998 17.5024 9.20113 17.2501 9.20113C16.9978 9.20113 16.5812 9.31999 16.3949 9.75541C16.1391 10.3533 15.5899 11.2 14.6251 11.2C13.6603 11.2 13.1111 10.3533 12.8553 9.75541C12.669 9.31998 12.2524 9.20113 12.0001 9.20113C11.7478 9.20113 11.3312 9.31999 11.1449 9.75541C10.8891 10.3533 10.3399 11.2 9.3751 11.2C8.41032 11.2 7.86106 10.3533 7.60529 9.75541C7.41901 9.31998 7.00236 9.20113 6.7501 9.20113C6.49784 9.20113 6.0812 9.31999 5.89491 9.75541C5.63914 10.3533 5.08989 11.2 4.1251 11.2C3.16402 11.2 2.61531 10.3596 2.35852 9.76294C2.35911 9.75618 2.36132 9.74268 2.36878 9.7235L4.62277 3.92752ZM13.7002 17.5V20.2H10.3002V17.5C10.3002 16.5611 11.0613 15.8 12.0002 15.8C12.9391 15.8 13.7002 16.5611 13.7002 17.5Z" fill="currentColor"/>
</svg>
