<svg viewBox="0 0 24 24" fill="none" xmlns="http://www.w3.org/2000/svg">
<path d="M12.0004 13.5982C14.3121 13.5983 16.4702 14.051 18.0844 14.9205C19.6972 15.7894 20.9008 17.165 20.9008 18.9986V19.2984C20.9008 19.4936 20.901 19.6946 20.8871 19.8648C20.8723 20.0455 20.8363 20.2696 20.7201 20.4977C20.562 20.8079 20.3096 21.0602 19.9994 21.2184C19.7714 21.3345 19.5472 21.3705 19.3666 21.3853C19.1965 21.3993 18.9952 21.399 18.8002 21.399L5.20056 21.4C5.00553 21.4 4.8043 21.4002 4.63416 21.3863C4.45358 21.3716 4.22931 21.3354 4.00134 21.2193C3.69103 21.0612 3.43882 20.8089 3.28064 20.4986C3.16442 20.2705 3.12843 20.0465 3.11365 19.8658C3.09974 19.6956 3.09998 19.4946 3.09998 19.2994V18.9986C3.09998 17.1649 4.30333 15.7894 5.91638 14.9205C7.53062 14.0511 9.68857 13.5982 12.0004 13.5982ZM12.0004 15.399C9.8942 15.399 8.05103 15.8155 6.7699 16.5055C5.48783 17.1962 4.90076 18.0711 4.90076 18.9986V19.2994C4.90076 19.4062 4.9006 19.4904 4.90173 19.5631C4.90191 19.5746 4.90248 19.586 4.90271 19.5963C4.91307 19.5965 4.92436 19.5981 4.93591 19.5982C5.00858 19.5994 5.09368 19.5992 5.20056 19.5992H18.8002C18.9071 19.5992 18.9922 19.5984 19.0648 19.5973C19.076 19.5971 19.087 19.5955 19.097 19.5953C19.0973 19.5851 19.0988 19.5744 19.099 19.5631C19.1001 19.4903 19.1 19.4055 19.1 19.2984V18.9986C19.1 18.0712 18.5127 17.1961 17.2308 16.5055C15.9498 15.8154 14.1065 15.3991 12.0004 15.399ZM12.0004 2.60019C14.7064 2.60036 16.9008 4.79449 16.9008 7.50058C16.9005 10.2065 14.7063 12.4008 12.0004 12.401C9.29431 12.401 7.10019 10.2066 7.09998 7.50058C7.09998 4.79439 9.29418 2.60019 12.0004 2.60019ZM12.0004 4.40097C10.2883 4.40097 8.90076 5.78849 8.90076 7.50058C8.90097 9.21249 10.2884 10.6002 12.0004 10.6002C13.7122 10.6 15.0998 9.21238 15.1 7.50058C15.1 5.7886 13.7123 4.40114 12.0004 4.40097Z" fill="currentColor"/>
<path fill-rule="evenodd" clip-rule="evenodd" d="M12 2.60098C9.29386 2.60098 7.10006 4.79479 7.10006 7.50098C7.10006 10.2072 9.29386 12.401 12 12.401C14.7062 12.401 16.9 10.2072 16.9 7.50098C16.9 4.79479 14.7062 2.60098 12 2.60098ZM8.90005 7.50098C8.90005 5.7889 10.288 4.40098 12 4.40098C13.7121 4.40098 15.1 5.7889 15.1 7.50098C15.1 9.21307 13.7121 10.601 12 10.601C10.288 10.601 8.90005 9.21307 8.90005 7.50098Z" fill="currentColor"/>
<path fill-rule="evenodd" clip-rule="evenodd" d="M12 13.5994C9.68802 13.5994 7.53058 14.052 5.91631 14.9215C4.30318 15.7905 3.09998 17.1656 3.09998 18.9994L3.09998 19.3271C3.09995 19.5138 3.09992 19.7038 3.11319 19.8662C3.12796 20.047 3.16353 20.2712 3.27983 20.4995C3.43804 20.8099 3.69047 21.0624 4.00096 21.2205C4.22921 21.3368 4.45346 21.3724 4.63419 21.3872C4.79663 21.4004 4.98666 21.4004 5.17331 21.4003L18.8268 21.3995C19.0135 21.3995 19.2035 21.3996 19.3659 21.3863C19.5466 21.3715 19.7709 21.3359 19.9991 21.2196C20.3095 21.0614 20.5619 20.809 20.7201 20.4986C20.8364 20.2703 20.872 20.0461 20.8867 19.8654C20.9 19.703 20.9 19.5129 20.8999 19.3263L20.8999 18.9994C20.8999 17.1656 19.6967 15.7905 18.0836 14.9215C16.4693 14.052 14.3119 13.5994 12 13.5994ZM4.89998 18.9994C4.89998 18.0718 5.48763 17.197 6.76993 16.5062C8.05107 15.8161 9.89362 15.3994 12 15.3994C14.1063 15.3994 15.9488 15.8161 17.23 16.5062C18.5123 17.197 19.0999 18.0718 19.0999 18.9994L19.0981 19.5977L4.90179 19.5985L4.89998 18.9994Z" fill="currentColor"/>
</svg>
