<svg viewBox="0 0 24 24" fill="none" xmlns="http://www.w3.org/2000/svg">
<path d="M7.60017 7.25291C7.60017 4.82285 9.57011 2.85291 12.0001 2.85291C14.4302 2.85291 16.4001 4.82285 16.4001 7.25291C16.4001 9.68296 14.4302 11.6529 12.0001 11.6529C9.57011 11.6529 7.60017 9.68296 7.60017 7.25291Z" fill="currentColor"/>
<path d="M12.0001 13.599C9.68814 13.599 7.5307 14.0516 5.91643 14.9211C4.3033 15.79 3.1001 17.1652 3.1001 18.999L3.1001 19.3267C3.10007 19.5133 3.10004 19.7034 3.11331 19.8658C3.12808 20.0465 3.16365 20.2708 3.27996 20.499C3.43816 20.8095 3.69059 21.0619 4.00108 21.2201C4.22933 21.3364 4.45358 21.372 4.63431 21.3867C4.79675 21.4 4.98678 21.3999 5.17343 21.3999L18.8269 21.3991C19.0136 21.3991 19.2036 21.3991 19.366 21.3859C19.5467 21.3711 19.771 21.3355 19.9992 21.2192C20.3096 21.061 20.562 20.8086 20.7202 20.4981C20.8365 20.2699 20.8721 20.0457 20.8868 19.865C20.9001 19.7025 20.9001 19.5125 20.9 19.3259L20.9 18.999C20.9 17.1652 19.6968 15.79 18.0837 14.9211C16.4694 14.0516 14.312 13.599 12.0001 13.599Z" fill="currentColor"/>
</svg>
