<svg xmlns="http://www.w3.org/2000/svg" width="16" height="16" viewBox="0 0 16 16" fill="none">
  <path d="M9.69618 4.51429L10.5751 3.63533C8.63207 2.48632 6.08591 2.74746 4.41628 4.41709C2.43763 6.39575 2.43763 9.60379 4.41628 11.5824C6.39494 13.5611 9.60298 13.5611 11.5816 11.5824C12.5712 10.5928 13.0658 9.29698 13.0656 7.99919C13.0656 7.66781 13.3342 7.39915 13.6656 7.39912C13.9969 7.39908 14.2656 7.66768 14.2656 7.99905C14.2658 9.60214 13.6539 11.2073 12.4302 12.431C9.98287 14.8783 6.01504 14.8783 3.56775 12.431C1.12047 9.98368 1.12047 6.01585 3.56775 3.56857C5.70906 1.42726 9.01322 1.15994 11.4457 2.76477L12.2889 1.92156C12.4605 1.74996 12.7186 1.69863 12.9428 1.7915C13.167 1.88437 13.3132 2.10315 13.3132 2.34583L13.3132 4.93855C13.3132 5.09768 13.25 5.25029 13.1374 5.36282C13.0249 5.47534 12.8723 5.53855 12.7132 5.53855H10.1204C9.87777 5.53855 9.65899 5.39237 9.56612 5.16816C9.47325 4.94396 9.52459 4.68589 9.69618 4.51429Z" fill="currentColor"/>
</svg>