<svg viewBox="0 0 20 20" fill="none" xmlns="http://www.w3.org/2000/svg">
<mask id="path-1-inside-1_925_1464" fill="white">
<path d="M12.8485 3.19284C12.9015 3.47557 13.0899 3.71181 13.3425 3.84938C13.4608 3.91375 13.5769 3.98143 13.6909 4.0523C13.9372 4.20548 14.2385 4.2522 14.5122 4.156L16.6797 3.39392C17.0831 3.25211 17.5302 3.41766 17.744 3.78794L19.2566 6.40808C19.4704 6.77843 19.3901 7.24854 19.0655 7.5269L17.3171 9.02601C17.0977 9.21417 16.9875 9.4972 16.9969 9.78611C16.9992 9.85712 17.0004 9.92841 17.0004 9.99994C17.0004 10.1268 16.9965 10.2529 16.9893 10.3781C16.9723 10.6746 17.082 10.9676 17.3075 11.161L19.0657 12.6693C19.3902 12.9476 19.4705 13.4177 19.2567 13.788L17.7441 16.4081C17.5303 16.7784 17.083 16.944 16.6796 16.802L14.3086 15.9679C14.0445 15.875 13.7539 15.9151 13.5116 16.0554C13.4558 16.0877 13.3995 16.1192 13.3428 16.15C13.0899 16.2871 12.9015 16.5233 12.8486 16.8061L12.3861 19.2749C12.3074 19.6953 11.9404 19.9999 11.5128 19.9999H8.48776C8.06019 19.9999 7.69324 19.6954 7.61441 19.2752L7.15124 16.8058C7.09824 16.5232 6.90993 16.2871 6.65717 16.1501C6.6004 16.1193 6.5441 16.0877 6.48829 16.0554C6.2459 15.9152 5.95518 15.875 5.69101 15.9679L3.32111 16.802C2.91771 16.9439 2.4704 16.7784 2.25659 16.408L0.74395 13.7878C0.530213 13.4176 0.61041 12.9476 0.934836 12.6692L2.6924 11.161C2.91775 10.9676 3.02753 10.6747 3.011 10.3782C3.00401 10.2529 3.00036 10.1268 3.00035 9.99994C3.00035 9.92839 3.00145 9.85708 3.00361 9.78604C3.0124 9.49718 2.90209 9.21418 2.68273 9.02602L0.935054 7.52691C0.610518 7.24853 0.530256 6.77849 0.744028 6.4082L2.25666 3.788C2.47044 3.41769 2.91765 3.25215 3.32102 3.39401L5.48744 4.15591C5.76114 4.25217 6.06258 4.20542 6.30897 4.05223C6.42297 3.98135 6.53915 3.91367 6.6574 3.84929C6.90991 3.7118 7.09825 3.47568 7.15126 3.19309L7.61438 0.724666C7.69322 0.304437 8.06017 -6.10352e-05 8.48773 -6.10352e-05H11.5128C11.9404 -6.10352e-05 12.3074 0.304558 12.3862 0.724893L12.8485 3.19284ZM10.0004 7.99994C8.89579 7.99995 8.00035 8.89538 8.00035 9.99994C8.00038 11.1045 8.89581 11.9999 10.0004 11.9999C11.1049 11.9999 12.0003 11.1045 12.0004 9.99994C12.0004 8.89537 11.1049 7.99994 10.0004 7.99994Z"/>
</mask>
<path d="M17.0004 9.99994L18.5004 9.99997V9.99994H17.0004ZM3.00035 9.99994H1.50035V9.99997L3.00035 9.99994ZM10.0004 7.99994V6.49994H10.0003L10.0004 7.99994ZM8.00035 9.99994H6.50035V9.99998L8.00035 9.99994ZM10.0004 11.9999L10.0003 13.4999H10.0004V11.9999ZM12.0004 9.99994L13.5004 9.99998V9.99994H12.0004ZM12.3862 0.724893L13.8605 0.448675L12.3862 0.724893ZM5.48744 4.15591L5.9851 2.74087L5.48744 4.15591ZM0.935054 7.52691L-0.0415469 8.66544L0.935054 7.52691ZM3.00361 9.78604L1.50431 9.74041L3.00361 9.78604ZM2.68273 9.02602L1.70613 10.1646L2.68273 9.02602ZM3.32111 16.802L3.81906 18.2169L3.32111 16.802ZM2.25659 16.408L3.55565 15.6581L2.25659 16.408ZM6.48829 16.0554L5.73706 17.3538L6.48829 16.0554ZM6.65717 16.1501L5.94222 17.4687L6.65717 16.1501ZM13.3428 16.15L14.0578 17.4685L13.3428 16.15ZM12.8486 16.8061L11.3742 16.5299L12.8486 16.8061ZM14.3086 15.9679L13.8108 17.3829L14.3086 15.9679ZM13.5116 16.0554L12.7602 14.7571L13.5116 16.0554ZM17.7441 16.4081L16.445 15.6581L17.7441 16.4081ZM16.6796 16.802L16.1818 18.217L16.6796 16.802ZM19.0657 12.6693L20.0423 11.5308L19.0657 12.6693ZM19.2567 13.788L17.9576 13.038L19.2567 13.788ZM16.9893 10.3781L15.4918 10.2921L16.9893 10.3781ZM17.3075 11.161L16.3308 12.2995L17.3075 11.161ZM17.3171 9.02601L16.3407 7.8873L17.3171 9.02601ZM16.9969 9.78611L18.4961 9.73772L16.9969 9.78611ZM19.2566 6.40808L17.9575 7.15803L19.2566 6.40808ZM16.6797 3.39392L16.1822 1.97883L16.6797 3.39392ZM17.744 3.78794L16.4449 4.53789L17.744 3.78794ZM7.61438 0.724666L9.08866 1.00127L7.61438 0.724666ZM13.6909 4.0523L14.483 2.77851L13.6909 4.0523ZM14.5122 4.156L14.0147 2.74091L14.5122 4.156ZM12.3861 19.2749L13.8605 19.5511L12.3861 19.2749ZM6.6574 3.84929L5.94012 2.5319L6.6574 3.84929ZM7.15126 3.19309L5.67699 2.91649L7.15126 3.19309ZM13.3425 3.84938L12.6252 5.16672L13.3425 3.84938ZM12.8485 3.19284L11.3742 3.46906L12.8485 3.19284ZM13.3425 3.84938L12.6252 5.16672C12.718 5.21725 12.8092 5.27041 12.8987 5.32609L13.6909 4.0523L14.483 2.77851C14.3446 2.69246 14.2035 2.61025 14.0599 2.53204L13.3425 3.84938ZM14.5122 4.156L15.0097 5.57108L17.1773 4.80901L16.6797 3.39392L16.1822 1.97883L14.0147 2.74091L14.5122 4.156ZM17.744 3.78794L16.4449 4.53789L17.9575 7.15803L19.2566 6.40808L20.5557 5.65813L19.0431 3.03799L17.744 3.78794ZM19.0655 7.5269L18.0891 6.38819L16.3407 7.8873L17.3171 9.02601L18.2935 10.1647L20.0419 8.6656L19.0655 7.5269ZM16.9969 9.78611L15.4977 9.8345C15.4994 9.88991 15.5004 9.94505 15.5004 9.99994H17.0004H18.5004C18.5004 9.91176 18.4989 9.82434 18.4961 9.73772L16.9969 9.78611ZM17.0004 9.99994L15.5004 9.99991C15.5004 10.0966 15.4974 10.1939 15.4918 10.2921L16.9893 10.3781L18.4869 10.4641C18.4956 10.3119 18.5004 10.1571 18.5004 9.99997L17.0004 9.99994ZM17.3075 11.161L16.3308 12.2995L18.0891 13.8078L19.0657 12.6693L20.0423 11.5308L18.2841 10.0225L17.3075 11.161ZM19.2567 13.788L17.9576 13.038L16.445 15.6581L17.7441 16.4081L19.0432 17.158L20.5558 14.5379L19.2567 13.788ZM16.6796 16.802L17.1775 15.3871L14.8064 14.5529L14.3086 15.9679L13.8108 17.3829L16.1818 18.217L16.6796 16.802ZM13.5116 16.0554L12.7602 14.7571C12.7165 14.7824 12.6723 14.8072 12.6277 14.8314L13.3428 16.15L14.0578 17.4685C14.1267 17.4312 14.195 17.3929 14.2629 17.3536L13.5116 16.0554ZM12.8486 16.8061L11.3742 16.5299L10.9118 18.9988L12.3861 19.2749L13.8605 19.5511L14.3229 17.0822L12.8486 16.8061ZM11.5128 19.9999V18.4999H8.48776V19.9999V21.4999H11.5128V19.9999ZM7.61441 19.2752L9.0887 18.9986L8.62553 16.5293L7.15124 16.8058L5.67695 17.0823L6.14012 19.5517L7.61441 19.2752ZM6.65717 16.1501L7.37212 14.8314C7.32744 14.8072 7.28323 14.7824 7.23951 14.7571L6.48829 16.0554L5.73706 17.3538C5.80496 17.3931 5.87336 17.4314 5.94222 17.4687L6.65717 16.1501ZM5.69101 15.9679L5.19307 14.553L2.82317 15.387L3.32111 16.802L3.81906 18.2169L6.18896 17.3829L5.69101 15.9679ZM2.25659 16.408L3.55565 15.6581L2.04302 13.0379L0.74395 13.7878L-0.555117 14.5378L0.957518 17.158L2.25659 16.408ZM0.934836 12.6692L1.91167 13.8076L3.66924 12.2993L2.6924 11.161L1.71557 10.0227L-0.0420006 11.5309L0.934836 12.6692ZM3.011 10.3782L4.50867 10.2947C4.50318 10.1963 4.50036 10.098 4.50035 9.99991L3.00035 9.99994L1.50035 9.99997C1.50036 10.1557 1.50484 10.3096 1.51332 10.4617L3.011 10.3782ZM3.00035 9.99994H4.50035C4.50035 9.9437 4.50122 9.88761 4.50292 9.83166L3.00361 9.78604L1.50431 9.74041C1.50168 9.82656 1.50035 9.91308 1.50035 9.99994H3.00035ZM2.68273 9.02602L3.65933 7.88749L1.91165 6.38838L0.935054 7.52691L-0.0415469 8.66544L1.70613 10.1646L2.68273 9.02602ZM0.744028 6.4082L2.04309 7.15814L3.55573 4.53795L2.25666 3.788L0.957596 3.03805L-0.555039 5.65825L0.744028 6.4082ZM3.32102 3.39401L2.82337 4.80905L4.98979 5.57096L5.48744 4.15591L5.9851 2.74087L3.81867 1.97897L3.32102 3.39401ZM6.30897 4.05223L7.10099 5.32609C7.19053 5.27041 7.2818 5.21724 7.37467 5.16667L6.6574 3.84929L5.94012 2.5319C5.79651 2.61009 5.6554 2.6923 5.51695 2.77838L6.30897 4.05223ZM7.15126 3.19309L8.62554 3.46969L9.08866 1.00127L7.61438 0.724666L6.14011 0.448066L5.67699 2.91649L7.15126 3.19309ZM8.48773 -6.10352e-05V1.49994H11.5128V-6.10352e-05V-1.50006H8.48773V-6.10352e-05ZM12.3862 0.724893L10.9118 1.00111L11.3742 3.46906L12.8485 3.19284L14.3229 2.91662L13.8605 0.448675L12.3862 0.724893ZM10.0004 7.99994L10.0003 6.49994C8.06738 6.49997 6.50035 8.06693 6.50035 9.99994H8.00035H9.50035C9.50035 9.72382 9.72421 9.49994 10.0004 9.49994L10.0004 7.99994ZM8.00035 9.99994L6.50035 9.99998C6.50041 11.9329 8.06736 13.4999 10.0003 13.4999L10.0004 11.9999L10.0004 10.4999C9.72427 10.4999 9.50036 10.2761 9.50035 9.9999L8.00035 9.99994ZM10.0004 11.9999V13.4999C11.9334 13.4999 13.5003 11.9329 13.5004 9.99998L12.0004 9.99994L10.5004 9.9999C10.5003 10.2761 10.2764 10.4999 10.0004 10.4999V11.9999ZM12.0004 9.99994H13.5004C13.5004 8.06694 11.9334 6.49994 10.0004 6.49994V7.99994V9.49994C10.2765 9.49994 10.5004 9.72379 10.5004 9.99994H12.0004ZM11.5128 -6.10352e-05V1.49994C11.2185 1.49994 10.966 1.29034 10.9118 1.00111L12.3862 0.724893L13.8605 0.448675C13.6488 -0.68122 12.6623 -1.50006 11.5128 -1.50006V-6.10352e-05ZM5.48744 4.15591L4.98979 5.57096C5.74176 5.83541 6.51493 5.69047 7.10099 5.32609L6.30897 4.05223L5.51695 2.77838C5.61023 2.72038 5.78053 2.66893 5.9851 2.74087L5.48744 4.15591ZM2.25666 3.788L3.55573 4.53795C3.40863 4.79276 3.10092 4.90666 2.82337 4.80905L3.32102 3.39401L3.81867 1.97897C2.73438 1.59764 1.53225 2.04263 0.957596 3.03805L2.25666 3.788ZM0.935054 7.52691L1.91165 6.38838C2.13496 6.57993 2.19019 6.90335 2.04309 7.15814L0.744028 6.4082L-0.555039 5.65825C-1.12968 6.65363 -0.913925 7.91714 -0.0415469 8.66544L0.935054 7.52691ZM3.00361 9.78604L4.50292 9.83166C4.52387 9.14311 4.26188 8.40434 3.65933 7.88749L2.68273 9.02602L1.70613 10.1646C1.54229 10.024 1.50093 9.85124 1.50431 9.74041L3.00361 9.78604ZM2.6924 11.161L3.66924 12.2993C4.28855 11.7679 4.54814 11.0025 4.50867 10.2947L3.011 10.3782L1.51332 10.4617C1.50692 10.3468 1.54696 10.1674 1.71557 10.0227L2.6924 11.161ZM0.74395 13.7878L2.04302 13.0379C2.19009 13.2926 2.1349 13.616 1.91167 13.8076L0.934836 12.6692L-0.0420006 11.5309C-0.914082 12.2793 -1.12966 13.5426 -0.555117 14.5378L0.74395 13.7878ZM3.32111 16.802L2.82317 15.387C3.10075 15.2893 3.40853 15.4032 3.55565 15.6581L2.25659 16.408L0.957518 17.158C1.53227 18.1536 2.73467 18.5985 3.81906 18.2169L3.32111 16.802ZM6.48829 16.0554L7.23951 14.7571C6.66422 14.4242 5.91875 14.2976 5.19307 14.553L5.69101 15.9679L6.18896 17.3829C5.99161 17.4523 5.82757 17.4061 5.73706 17.3538L6.48829 16.0554ZM7.15124 16.8058L8.62553 16.5293C8.47993 15.753 7.97532 15.1584 7.37212 14.8314L6.65717 16.1501L5.94222 17.4687C5.84453 17.4157 5.71655 17.2934 5.67695 17.0823L7.15124 16.8058ZM8.48776 19.9999V18.4999C8.78197 18.4999 9.03446 18.7095 9.0887 18.9986L7.61441 19.2752L6.14012 19.5517C6.35201 20.6814 7.3384 21.4999 8.48776 21.4999V19.9999ZM13.3428 16.15L12.6277 14.8314C12.0245 15.1585 11.5197 15.7533 11.3742 16.5299L12.8486 16.8061L14.3229 17.0822C14.2834 17.2934 14.1553 17.4157 14.0578 17.4685L13.3428 16.15ZM14.3086 15.9679L14.8064 14.5529C14.0809 14.2976 13.3355 14.4242 12.7602 14.7571L13.5116 16.0554L14.2629 17.3536C14.1722 17.4061 14.0081 17.4523 13.8108 17.3829L14.3086 15.9679ZM17.7441 16.4081L16.445 15.6581C16.5921 15.4033 16.8999 15.2894 17.1775 15.3871L16.6796 16.802L16.1818 18.217C17.2662 18.5985 18.4684 18.1536 19.0432 17.158L17.7441 16.4081ZM19.0657 12.6693L18.0891 13.8078C17.8658 13.6162 17.8105 13.2928 17.9576 13.038L19.2567 13.788L20.5558 14.5379C21.1304 13.5425 20.9147 12.2791 20.0423 11.5308L19.0657 12.6693ZM16.9893 10.3781L15.4918 10.2921C15.451 11.0017 15.7112 11.768 16.3308 12.2995L17.3075 11.161L18.2841 10.0225C18.4529 10.1673 18.4935 10.3476 18.4869 10.4641L16.9893 10.3781ZM17.3171 9.02601L16.3407 7.8873C15.7375 8.40457 15.4754 9.1445 15.4977 9.8345L16.9969 9.78611L18.4961 9.73772C18.4997 9.84989 18.4579 10.0238 18.2935 10.1647L17.3171 9.02601ZM19.2566 6.40808L17.9575 7.15803C17.8104 6.9032 17.8657 6.57972 18.0891 6.38819L19.0655 7.5269L20.0419 8.6656C20.9145 7.91735 21.1304 6.65366 20.5557 5.65813L19.2566 6.40808ZM16.6797 3.39392L17.1773 4.80901C16.8997 4.90659 16.592 4.79268 16.4449 4.53789L17.744 3.78794L19.0431 3.03799C18.4685 2.04264 17.2665 1.59763 16.1822 1.97883L16.6797 3.39392ZM7.61438 0.724666L9.08866 1.00127C9.03441 1.29042 8.78192 1.49994 8.48773 1.49994V-6.10352e-05V-1.50006C7.33841 -1.50006 6.35204 -0.681545 6.14011 0.448066L7.61438 0.724666ZM13.6909 4.0523L12.8987 5.32609C13.4848 5.69056 14.2579 5.8354 15.0097 5.57108L14.5122 4.156L14.0147 2.74091C14.2192 2.66901 14.3895 2.7204 14.483 2.77851L13.6909 4.0523ZM12.3861 19.2749L10.9118 18.9988C10.966 18.7096 11.2185 18.4999 11.5128 18.4999V19.9999V21.4999C12.6623 21.4999 13.6489 20.681 13.8605 19.5511L12.3861 19.2749ZM6.6574 3.84929L7.37467 5.16667C7.97546 4.83957 8.47989 4.24602 8.62554 3.46969L7.15126 3.19309L5.67699 2.91649C5.7166 2.70533 5.84437 2.58403 5.94012 2.5319L6.6574 3.84929ZM13.3425 3.84938L14.0599 2.53204C14.1555 2.58409 14.2833 2.70533 14.3229 2.91662L12.8485 3.19284L11.3742 3.46906C11.5197 4.24581 12.0244 4.83954 12.6252 5.16672L13.3425 3.84938Z" fill="currentColor" mask="url(#path-1-inside-1_925_1464)"/>
</svg>
